<?xml version="1.0" standalone="no"?>
<!DOCTYPE svg PUBLIC "-//W3C//DTD SVG 20010904//EN"
 "http://www.w3.org/TR/2001/REC-SVG-20010904/DTD/svg10.dtd">
<svg version="1.0" xmlns="http://www.w3.org/2000/svg"
 width="192.000000pt" height="192.000000pt" viewBox="0 0 192.000000 192.000000"
 preserveAspectRatio="xMidYMid meet">
<metadata>
Created by potrace 1.11, written by Peter Selinger 2001-2013
</metadata>
<g transform="translate(0.000000,192.000000) scale(0.100000,-0.100000)"
fill="#000000" stroke="none">
<path d="M848 1915 c-2 -2 -23 -6 -47 -10 -23 -3 -54 -10 -67 -15 -13 -5 -24
-7 -24 -5 0 3 -19 -2 -42 -11 -171 -64 -264 -120 -376 -231 -77 -76 -152 -170
-152 -191 0 -6 -3 -12 -8 -14 -10 -4 -72 -135 -72 -152 0 -8 -4 -17 -9 -20 -5
-3 -12 -20 -15 -38 -3 -18 -8 -44 -11 -58 -3 -14 -10 -45 -15 -70 -15 -74 -5
-285 18 -371 97 -364 359 -617 737 -709 130 -32 351 -18 504 31 78 25 261 125
261 142 0 4 5 7 11 7 16 0 167 155 205 210 115 165 176 372 169 575 -4 110 -7
134 -26 210 -92 362 -407 653 -770 711 -38 6 -266 13 -271 9z"/>
</g>
</svg>
