<?xml version="1.0" encoding="UTF-8"?>
<svg width="84px" height="84px" viewBox="0 0 84 84" version="1.1" xmlns="http://www.w3.org/2000/svg" xmlns:xlink="http://www.w3.org/1999/xlink">
    <!-- Generator: Sketch 59 (86127) - https://sketch.com -->
    <title>logo_blue_circle</title>
    <desc>Created with Sketch.</desc>
    <g id="logo_blue_circle" stroke="none" stroke-width="1" fill="none" fill-rule="evenodd">
        <path d="M41.96325,0.0700269231 C18.7873269,0.0700269231 -0.000403846154,18.8561423 -0.000403846154,42.0320654 C-0.000403846154,65.2071808 18.7873269,84.0005654 41.96325,84.0005654 C65.1391731,84.0005654 83.9293269,65.2071808 83.9293269,42.0320654 C83.9293269,18.8561423 65.1391731,0.0700269231 41.96325,0.0700269231" id="Fill-1" fill="#0098CC"></path>
        <path d="M22,42.4638974 C22,41.6555473 22.6382651,41 23.4234082,41 C24.2108582,41 24.8452784,41.6555473 24.8452784,42.4638974 L24.8452784,48.2759422 C24.8452784,50.9218832 26.9346355,53.0737887 29.500769,53.0737887 C32.0676715,53.0737887 34.1554906,50.9218832 34.1554906,48.2759422 L34.1554906,42.4638974 C34.1554906,41.6555473 34.7914488,41 35.5765918,41 C36.3625038,41 37,41.6555473 37,42.4638974 L37,48.2759422 C37,52.5369999 33.6333436,56 29.500769,56 C25.3666564,56 22,52.5369999 22,48.2759422 L22,42.4638974 Z" id="Fill-4" fill="#FFFFFF"></path>
        <path d="M62,41.5359481 C62,42.3459671 61.3601969,43 60.5765918,43 C59.7922178,43 59.1531836,42.3459671 59.1531836,41.5359481 L59.1531836,35.7264569 C59.1531836,33.0802365 57.0653645,30.9312711 54.502307,30.9312711 C51.9354045,30.9312711 49.8468164,33.0802365 49.8468164,35.7264569 L49.8468164,41.5359481 C49.8468164,42.3459671 49.2116272,43 48.4234082,43 C47.6374962,43 47,42.3459671 47,41.5359481 L47,35.7264569 C47,31.4665329 50.3666564,28 54.502307,28 C58.6364196,28 62,31.4665329 62,35.7264569 L62,41.5359481 Z" id="Fill-6" fill="#FFFFFF"></path>
        <path d="M68,41.9983893 C68,42.8222598 67.3412068,43.4874768 66.523697,43.4874768 C65.7093776,43.4874768 65.0505844,42.8222598 65.0505844,41.9983893 L65.0505844,35.8745269 C65.0505844,29.8642184 60.208534,24.9797858 54.2594558,24.9797858 C48.3143655,24.9797858 43.4723151,29.8642184 43.4723151,35.8745269 L43.4723151,48.1286945 C43.4723151,55.7754691 37.3110832,62 29.7365563,62 C22.1604344,62 16,55.7754691 16,48.1286945 L16,41.9983893 C16,41.1761295 16.6595908,40.5093018 17.4747078,40.5093018 C18.2890273,40.5093018 18.9494156,41.1761295 18.9494156,41.9983893 L18.9494156,48.1286945 C18.9494156,54.1325602 23.791466,59.0202142 29.7365563,59.0202142 C35.6872297,59.0202142 40.5228995,54.1325602 40.5228995,48.1286945 L40.5228995,35.8745269 C40.5228995,28.2253362 46.6881193,22 54.2594558,22 C61.8347802,22 68,28.2253362 68,35.8745269 L68,41.9983893 Z" id="Fill-8" fill="#FFFFFF"></path>
    </g>
</svg>